<svg width="113" height="151" viewBox="0 0 113 151" fill="none" xmlns="http://www.w3.org/2000/svg">
<path fill-rule="evenodd" clip-rule="evenodd" d="M56.5501 30.0279C59.5366 30.0279 62.4007 28.8415 64.5125 26.7298C66.6242 24.618 67.8106 21.7539 67.8106 18.7674C67.8106 15.781 66.6242 12.9168 64.5125 10.8051C62.4007 8.69333 59.5366 7.50697 56.5501 7.50697C53.5637 7.50697 50.6995 8.69333 48.5878 10.8051C46.476 12.9168 45.2897 15.781 45.2897 18.7674C45.2897 21.7539 46.476 24.618 48.5878 26.7298C50.6995 28.8415 53.5637 30.0279 56.5501 30.0279ZM56.5501 37.5348C61.5276 37.5348 66.3011 35.5576 69.8207 32.038C73.3403 28.5184 75.3175 23.7448 75.3175 18.7674C75.3175 13.79 73.3403 9.01642 69.8207 5.49685C66.3011 1.97728 61.5276 0 56.5501 0C51.5727 0 46.7991 1.97728 43.2796 5.49685C39.76 9.01642 37.7827 13.79 37.7827 18.7674C37.7827 23.7448 39.76 28.5184 43.2796 32.038C46.7991 35.5576 51.5727 37.5348 56.5501 37.5348Z" fill="#969696"/>
<path fill-rule="evenodd" clip-rule="evenodd" d="M31.6795 53.7274C33.3969 54.0543 34.9463 54.9704 36.0605 56.3176C37.1747 57.6647 37.7838 59.3585 37.7827 61.1068V138.879C37.7827 139.874 38.1781 140.829 38.882 141.533C39.586 142.237 40.5407 142.632 41.5362 142.632H41.8627C42.7998 142.632 43.7029 142.282 44.3947 141.65C45.0865 141.018 45.5169 140.15 45.6012 139.217L49.0431 101.344C49.0431 99.3531 49.834 97.4437 51.2419 96.0359C52.6497 94.628 54.5591 93.8371 56.5501 93.8371C58.5411 93.8371 60.4505 94.628 61.8583 96.0359C63.2662 97.4437 64.0571 99.3531 64.0571 101.344L67.499 139.217C67.5833 140.15 68.0137 141.018 68.7055 141.65C69.3973 142.282 70.3004 142.632 71.2375 142.632H71.564C72.5595 142.632 73.5142 142.237 74.2181 141.533C74.9221 140.829 75.3175 139.874 75.3175 138.879V61.2456C75.3173 59.4981 75.9267 57.8051 77.0409 56.4587C78.155 55.1124 79.7039 54.1968 81.4207 53.87C88.0118 52.6164 94.982 50.8785 102.643 48.6452C103.116 48.5072 103.557 48.2773 103.942 47.9687C104.326 47.6601 104.646 47.2788 104.883 46.8466C105.12 46.4145 105.27 45.9398 105.323 45.4498C105.377 44.9598 105.333 44.4641 105.195 43.9909C105.057 43.5177 104.827 43.0763 104.519 42.6919C104.21 42.3076 103.829 41.9878 103.397 41.7507C102.964 41.5137 102.49 41.3642 102 41.3106C101.51 41.257 101.014 41.3005 100.541 41.4385C83.1473 46.5057 69.7999 48.8554 56.5651 48.7953C43.3153 48.7353 29.9529 46.2655 12.5105 41.4272C12.0322 41.2846 11.5303 41.2388 11.0342 41.2925C10.538 41.3462 10.0575 41.4983 9.62084 41.7399C9.18415 41.9815 8.80003 42.3077 8.49094 42.6996C8.18186 43.0914 7.95401 43.5409 7.82074 44.0218C7.68746 44.5028 7.65143 45.0055 7.71476 45.5005C7.77809 45.9955 7.9395 46.473 8.18954 46.9049C8.43959 47.3368 8.77326 47.7145 9.17103 48.0159C9.5688 48.3173 10.0227 48.5363 10.5061 48.6602C18.1369 50.7772 25.0922 52.4737 31.6795 53.7274ZM52.714 141.893C52.0552 144.265 50.6374 146.355 48.6777 147.844C46.7179 149.334 44.3242 150.14 41.8627 150.139H41.5362C38.5497 150.139 35.6856 148.953 33.5738 146.841C31.4621 144.73 30.2757 141.865 30.2757 138.879V61.1068C23.4219 59.8005 16.2565 58.0439 8.49801 55.8894C7.04347 55.5213 5.67715 54.8663 4.47933 53.9627C3.28151 53.0592 2.27633 51.9254 1.52286 50.6279C0.769388 49.3304 0.282808 47.8954 0.0917084 46.4073C-0.0993909 44.9191 0.00884379 43.4077 0.410053 41.962C0.811262 40.5162 1.49736 39.1652 2.42803 37.9884C3.3587 36.8115 4.51518 35.8325 5.82953 35.1088C7.14388 34.3852 8.58959 33.9315 10.0817 33.7745C11.5739 33.6174 13.0824 33.7602 14.5186 34.1943C31.672 38.9499 44.3025 41.2321 56.5989 41.2884C68.8578 41.3409 81.4394 39.1864 98.4427 34.2318C99.869 33.7951 101.368 33.6461 102.852 33.7935C104.337 33.9409 105.777 34.3818 107.09 35.0905C108.402 35.7992 109.561 36.7617 110.498 37.9219C111.436 39.0822 112.133 40.4172 112.551 41.8494C112.968 43.2815 113.096 44.7823 112.929 46.2645C112.761 47.7468 112.3 49.1809 111.574 50.4837C110.847 51.7864 109.869 52.9319 108.696 53.8534C107.523 54.775 106.179 55.4543 104.741 55.8519C96.9188 58.134 89.7121 59.9357 82.8245 61.2456V138.879C82.8245 141.865 81.6381 144.73 79.5264 146.841C77.4146 148.953 74.5505 150.139 71.564 150.139H71.2375C68.4275 150.14 65.719 149.089 63.6438 147.195C61.5687 145.3 60.2768 142.698 60.0221 139.9L56.5801 102.027C56.5603 101.806 56.5503 101.585 56.5501 101.363C56.5501 101.583 56.5401 101.803 56.5201 102.023L53.0744 139.896C53.0146 140.571 52.894 141.24 52.714 141.893Z" fill="#969696"/>
</svg>
