<svg width="47" height="33" viewBox="0 0 47 33" fill="none" xmlns="http://www.w3.org/2000/svg">
<path d="M23.5 24.0901C27.7508 24.0901 31.1967 20.6441 31.1967 16.3934C31.1967 12.1426 27.7508 8.69669 23.5 8.69669C19.2493 8.69669 15.8033 12.1426 15.8033 16.3934C15.8033 20.6441 19.2493 24.0901 23.5 24.0901Z" stroke="#969696" stroke-width="2"/>
<path d="M44.5068 13.6585C45.5023 14.8694 46 15.4723 46 16.3934C46 17.3144 45.5023 17.9173 44.5068 19.1283C40.8637 23.5513 32.8284 31.7868 23.5 31.7868C14.1716 31.7868 6.13626 23.5513 2.49316 19.1283C1.49772 17.9173 1 17.3144 1 16.3934C1 15.4723 1.49772 14.8694 2.49316 13.6585C6.13626 9.23546 14.1716 1 23.5 1C32.8284 1 40.8637 9.23546 44.5068 13.6585Z" stroke="#969696" stroke-width="2"/>
</svg>
