<svg width="118" height="59" viewBox="0 0 118 59" fill="none" xmlns="http://www.w3.org/2000/svg">
<path fill-rule="evenodd" clip-rule="evenodd" d="M22.5553 42.3446C23.6916 44.8618 23.9089 47.6979 23.1696 50.3589C22.4302 53.0199 20.7809 55.3372 18.5089 56.9074C16.2369 58.4775 13.4861 59.201 10.7356 58.9519C7.98505 58.7027 5.40907 57.4967 3.4562 55.5438C1.50333 53.5909 0.297304 51.0148 0.0481396 48.2643C-0.201025 45.5138 0.522459 42.763 2.0926 40.4909C3.66275 38.2189 5.98007 36.5695 8.64103 35.8302C11.302 35.0908 14.138 35.3082 16.6552 36.4445L30.544 22.5555C29.733 20.7583 29.3853 18.7866 29.5326 16.8204C29.68 14.8542 30.3176 12.9562 31.3873 11.2999C32.457 9.64365 33.9247 8.28181 35.6563 7.33883C37.3879 6.39585 39.3281 5.90179 41.2998 5.90179C43.2715 5.90179 45.2117 6.39585 46.9433 7.33883C48.6749 8.28181 50.1425 9.64365 51.2123 11.2999C52.282 12.9562 52.9196 14.8542 53.0669 16.8204C53.2143 18.7866 52.8666 20.7583 52.0556 22.5555L65.9444 36.4445C67.4705 35.7554 69.1257 35.3991 70.8001 35.3991C72.4746 35.3991 74.1298 35.7554 75.6559 36.4445L95.4447 16.6554C94.3084 14.1382 94.091 11.3021 94.8304 8.64114C95.5698 5.98015 97.2191 3.66279 99.4911 2.09263C101.763 0.522466 104.514 -0.201027 107.264 0.0481402C110.015 0.297308 112.591 1.50335 114.544 3.45624C116.497 5.40914 117.703 7.98515 117.952 10.7357C118.201 13.4862 117.478 16.2371 115.907 18.5091C114.337 20.7811 112.02 22.4305 109.359 23.1698C106.698 23.9092 103.862 23.6918 101.345 22.5555L81.556 42.3446C82.3669 44.1418 82.7146 46.1136 82.5673 48.0798C82.42 50.046 81.7823 51.9439 80.7126 53.6002C79.6429 55.2565 78.1752 56.6183 76.4436 57.5613C74.7121 58.5043 72.7718 58.9984 70.8001 58.9984C68.8285 58.9984 66.8882 58.5043 65.1566 57.5613C63.4251 56.6183 61.9574 55.2565 60.8877 53.6002C59.818 51.9439 59.1803 50.046 59.033 48.0798C58.8857 46.1136 59.2334 44.1418 60.0443 42.3446L46.1555 28.4557C44.6295 29.1447 42.9742 29.5011 41.2998 29.5011C39.6254 29.5011 37.9701 29.1447 36.444 28.4557L22.5553 42.3446Z" fill="#969696"/>
</svg>
